<?xml version="1.0" encoding="utf-8"?>
<!-- Generator: Adobe Illustrator 16.0.0, SVG Export Plug-In . SVG Version: 6.00 Build 0)  -->
<!DOCTYPE svg PUBLIC "-//W3C//DTD SVG 1.1//EN" "http://www.w3.org/Graphics/SVG/1.1/DTD/svg11.dtd">
<svg version="1.1" id="Layer_1" xmlns="http://www.w3.org/2000/svg" xmlns:xlink="http://www.w3.org/1999/xlink" x="0px" y="0px"
	 width="497.25px" height="612px" viewBox="57.375 90 497.25 612" enable-background="new 57.375 90 497.25 612"
	 xml:space="preserve">
<path fill="#FFFFFF" d="M554.625,300.375c0-21.124-17.127-38.25-38.25-38.25V166.5c21.123,0,38.25-17.126,38.25-38.25
	S537.498,90,516.375,90h-38.25h-344.25h-38.25c-21.124,0-38.25,17.126-38.25,38.25s17.126,38.25,38.25,38.25v95.625
	c-21.124,0-38.25,17.126-38.25,38.25s17.126,38.25,38.25,38.25v114.75c-21.124,0-38.25,17.126-38.25,38.25s17.126,38.25,38.25,38.25
	V625.5c-21.124,0-38.25,17.127-38.25,38.25S74.501,702,95.625,702h38.25h344.25h38.25c21.123,0,38.25-17.127,38.25-38.25
	s-17.127-38.25-38.25-38.25v-95.625c21.123,0,38.25-17.126,38.25-38.25s-17.127-38.25-38.25-38.25v-114.75
	C537.498,338.625,554.625,321.499,554.625,300.375z M306,510.75c-42.247,0-76.5-32.685-76.5-73.02c0-52.17,76.5-156.48,76.5-156.48
	s76.5,104.31,76.5,156.48C382.5,478.065,348.247,510.75,306,510.75z"/>
</svg>
