<?xml version="1.0" encoding="utf-8"?>
<!-- Generator: Adobe Illustrator 16.0.0, SVG Export Plug-In . SVG Version: 6.00 Build 0)  -->
<!DOCTYPE svg PUBLIC "-//W3C//DTD SVG 1.1//EN" "http://www.w3.org/Graphics/SVG/1.1/DTD/svg11.dtd">
<svg version="1.1" id="Capa_1" xmlns="http://www.w3.org/2000/svg" xmlns:xlink="http://www.w3.org/1999/xlink" x="0px" y="0px"
	 width="490.672px" height="612px" viewBox="60.665 90 490.672 612" enable-background="new 60.665 90 490.672 612"
	 xml:space="preserve">
<g>
	<path fill="#FFFFFF" d="M546.386,94.624c-6.474-6.29-16.821-6.146-23.117,0.327c-13.48,13.865-81.327,86.179-93.222,148.294
		c-8.858,46.269,8.024,98.051,24.351,148.131c11.496,35.265,22.355,68.574,22.355,95.043c0,23.076-9.823,35.529-19.065,35.529
		c-8.296,0-17.034-10.8-17.034-31.442c0-25.463,0.086-99.437-59.173-109.255V208.516c0-9.027-6.639-15.325-15.667-15.325h-21.114
		v-17.369c0-9.028-6.639-15.326-15.667-15.326H163.516c-9.028,0-17.028,6.298-17.028,15.326v17.369h-17.71
		c-9.028,0-17.028,6.298-17.028,15.325v424.008H77.692c-9.028,0-17.027,6.298-17.027,15.326v36.781c0,9.028,8,17.369,17.027,17.369
		h339.207c9.027,0,15.666-8.341,15.666-17.369V647.85c0-9.028-6.639-15.326-15.666-15.326H381.48V414.715
		c12.261,4.568,26.479,20.467,26.479,75.794c0,44.064,25.773,64.137,49.559,64.137c25.723,0,51.846-23.432,51.846-68.224
		c0-31.66-11.599-67.369-23.924-105.176c-8.493-26.049-17.124-52.598-21.744-77.617c26.092-5.624,43.47-17.816,51.684-36.371
		c15.849-35.803-10.69-79.395-17.798-90.039c14.811-21.296,32.345-42.213,49.128-59.478
		C553.003,111.268,552.859,100.918,546.386,94.624z M344.699,362.793c0,9.028-7.319,16.347-16.348,16.347H162.835
		c-9.028,0-16.347-7.319-16.347-16.347V246.319c0-9.028,7.319-16.347,16.347-16.347h165.516c9.028,0,16.348,7.319,16.348,16.347
		V362.793z M485.479,254.058c-3.475,7.806-11.926,13.433-25.155,16.815c-0.038-7.432,0.523-14.614,1.835-21.48
		c2.338-12.202,8.011-26.109,15.833-40.621C484.751,222.518,491.122,241.37,485.479,254.058z"/>
</g>
</svg>
